<svg width="544" height="480" viewBox="0 0 544 480" fill="none" xmlns="http://www.w3.org/2000/svg">
<path d="M272 0C278.6 0 284.9 2.7 289.4 7.5L433.4 159.5L433.9 160H512C529.7 160 544 174.3 544 192C544 206.5 534.4 218.7 521.2 222.7L475.1 429.9C468.6 459.2 442.6 480 412.6 480H131.3C101.3 480 75.3 459.2 68.8 429.9L22.8 222.7C9.6 218.8 0 206.5 0 192C0 174.3 14.3 160 32 160H110.1L110.6 159.5L254.6 7.5C259.1 2.7 265.4 0 272 0ZM272 58.9L176.2 160H367.8L272 58.9ZM192 264C192 250.7 181.3 240 168 240C154.7 240 144 250.7 144 264V376C144 389.3 154.7 400 168 400C181.3 400 192 389.3 192 376V264ZM272 240C258.7 240 248 250.7 248 264V376C248 389.3 258.7 400 272 400C285.3 400 296 389.3 296 376V264C296 250.7 285.3 240 272 240ZM400 264C400 250.7 389.3 240 376 240C362.7 240 352 250.7 352 264V376C352 389.3 362.7 400 376 400C389.3 400 400 389.3 400 376V264Z" fill="#6C757D"/>
</svg>
