<svg width="448" height="512" viewBox="0 0 448 512" fill="none" xmlns="http://www.w3.org/2000/svg">
<path d="M224 0C206.3 0 192 14.3 192 32V35.2C119 50 64 114.6 64 192V213.7C64 261.8 47.6 308.5 17.6 346.1L7.8 358.3C2.7 364.6 0 372.4 0 380.5C0 400.1 15.9 416 35.5 416H412.4C432 416 447.9 400.1 447.9 380.5C447.9 372.4 445.2 364.6 440.1 358.3L430.3 346.1C400.4 308.5 384 261.8 384 213.7V192C384 114.6 329 50 256 35.2V32C256 14.3 241.7 0 224 0ZM162 464C169.1 491.6 194.2 512 224 512C253.8 512 278.9 491.6 286 464H162Z" fill="#6C757D"/>
</svg>
