<?xml version="1.0" encoding="UTF-8"?>
<svg version="1.1" xmlns="http://www.w3.org/2000/svg" width="249" height="234">
<path d="M0 0 C82.17 0 164.34 0 249 0 C249 77.22 249 154.44 249 234 C166.83 234 84.66 234 0 234 C0 156.78 0 79.56 0 0 Z " fill="#FDFDFE" transform="translate(0,0)"/>
<path d="M0 0 C9.52950103 1.21284559 17.23140645 11.95679659 23.7421875 18.51171875 C24.91386957 19.68459513 26.08592398 20.85709967 27.2583313 22.0292511 C29.70040201 24.47287726 32.1391025 26.91979937 34.57519531 29.36938477 C37.69718227 32.50844517 40.82579667 35.64079749 43.95670891 38.77095318 C46.37104334 41.18555933 48.78276479 43.60276085 51.19360733 46.02085304 C52.34685638 47.17728104 53.50070923 48.33310721 54.65517807 49.48831749 C56.26337476 51.09868113 57.86823722 52.71229316 59.47216797 54.3269043 C60.38513641 55.24368454 61.29810486 56.16046478 62.23873901 57.10502625 C65.00844614 60.04316696 66.35246432 61.68635149 66.8125 65.75 C66.13844606 72.37819711 61.56481035 76.60643297 56.99804688 81.13574219 C56.46744156 81.66985214 55.93683624 82.2039621 55.39015198 82.7542572 C53.65048422 84.50266409 51.90367906 86.24372768 50.15625 87.984375 C48.93814353 89.20382996 47.72033399 90.42358158 46.50280762 91.64361572 C43.9574202 94.19194347 41.40847127 96.73663932 38.85693359 99.27880859 C35.58839598 102.5359281 32.32895196 105.80197709 29.07210541 109.07078171 C26.56214201 111.58797246 24.04743423 114.10037992 21.53126526 116.61136627 C20.3273288 117.81396993 19.12487252 119.01805731 17.92393494 120.2236557 C16.24640135 121.90627148 14.56258468 123.58233795 12.87695312 125.25683594 C12.38332779 125.75450974 11.88970245 126.25218353 11.38111877 126.76493835 C8.37705738 129.73236844 5.77043206 132.25979619 1.4375 132.58984375 C0.4475 132.48349609 0.4475 132.48349609 -0.5625 132.375 C-1.2225 132.32214844 -1.8825 132.26929688 -2.5625 132.21484375 C-5.6392499 131.0189976 -6.76203845 129.16596294 -8.5625 126.4375 C-9.01660156 123.20776367 -9.01660156 123.20776367 -8.953125 119.60546875 C-8.94023438 118.31318359 -8.92734375 117.02089844 -8.9140625 115.68945312 C-8.88064634 114.33462454 -8.84678662 112.97980683 -8.8125 111.625 C-8.79242034 110.25067683 -8.77417213 108.87632561 -8.7578125 107.50195312 C-8.71071732 104.14642144 -8.64495135 100.79231873 -8.5625 97.4375 C-9.15861084 97.44638245 -9.75472168 97.45526489 -10.36889648 97.4644165 C-16.59853483 97.55322072 -22.82799202 97.61337105 -29.05810547 97.65722656 C-31.38011993 97.67728577 -33.70208423 97.70453991 -36.02392578 97.73925781 C-39.37024345 97.78802541 -42.71589059 97.81052643 -46.0625 97.828125 C-47.0930249 97.84877014 -48.1235498 97.86941528 -49.18530273 97.89068604 C-56.2357146 97.89285869 -61.9378838 96.88053214 -67.1907959 91.89077759 C-72.41889605 85.88746079 -71.23434616 76.80042991 -71.10449219 69.35546875 C-71.06248705 66.81171604 -71.06344466 64.27060525 -71.0703125 61.7265625 C-71.05982268 60.09633592 -71.04688568 58.46612285 -71.03125 56.8359375 C-71.03104858 56.08267181 -71.03084717 55.32940613 -71.03063965 54.55331421 C-70.90517772 48.91967681 -69.7097068 44.71860834 -65.80859375 40.57421875 C-65.21175781 40.09597656 -64.61492187 39.61773437 -64 39.125 C-63.10087891 38.38830078 -63.10087891 38.38830078 -62.18359375 37.63671875 C-59.28874003 35.49522455 -57.38904107 35.2959251 -53.83740234 35.23217773 C-52.85653656 35.21223251 -51.87567078 35.19228729 -50.86508179 35.17173767 C-49.27284286 35.14666893 -49.27284286 35.14666893 -47.6484375 35.12109375 C-46.56366119 35.10031265 -45.47888489 35.07953156 -44.36123657 35.05812073 C-40.88672379 34.99259366 -37.41213376 34.93372553 -33.9375 34.875 C-31.58592942 34.83181779 -29.23436674 34.7882036 -26.8828125 34.74414062 C-21.1094573 34.63690907 -15.3360248 34.53514856 -9.5625 34.4375 C-9.55839111 33.61548096 -9.55428223 32.79346191 -9.55004883 31.9465332 C-9.51710757 28.21362958 -9.44645896 24.48235666 -9.375 20.75 C-9.36919922 19.45642578 -9.36339844 18.16285156 -9.35742188 16.83007812 C-9.32841797 15.58291016 -9.29941406 14.33574219 -9.26953125 13.05078125 C-9.24596558 11.33048706 -9.24596558 11.33048706 -9.22192383 9.57543945 C-8.37720044 5.55573205 -6.63785172 4.06205852 -3.5625 1.4375 C-2.5625 0.4375 -2.5625 0.4375 0 0 Z " fill="#213252" transform="translate(95.5625,45.5625)"/>
<path d="M0 0 C0.77251099 -0.00570007 1.54502197 -0.01140015 2.34094238 -0.01727295 C3.98183827 -0.02673187 5.62275324 -0.03326046 7.26367188 -0.03710938 C9.74384194 -0.0467299 12.22315256 -0.07770736 14.703125 -0.109375 C28.24702029 -0.20131253 39.94046388 1.50025751 50.32421875 11.08984375 C56.84682509 18.16874914 60.37107291 25.47611787 60.43515015 35.16542053 C60.44375061 36.13940796 60.45235107 37.11339539 60.46121216 38.11689758 C60.46547211 39.17410507 60.46973206 40.23131256 60.47412109 41.32055664 C60.48638733 43.0044902 60.48638733 43.0044902 60.49890137 44.72244263 C60.5237032 48.43605015 60.54025977 52.14961952 60.5546875 55.86328125 C60.56001118 57.13452787 60.56533485 58.4057745 60.57081985 59.71554375 C60.59203868 65.062608 60.61116721 70.40965902 60.62244225 75.75675297 C60.63864749 83.38875573 60.67175537 91.02024679 60.72884309 98.65205675 C60.77242029 104.68605767 60.78820814 110.71982811 60.79457474 116.7539959 C60.80127012 119.3091235 60.81644713 121.86424417 60.84046555 124.41926765 C60.87225902 128.00654521 60.87213154 131.59254886 60.86474609 135.17993164 C60.88115143 136.22296951 60.89755676 137.26600739 60.91445923 138.34065247 C60.82871768 148.58334222 57.43817583 157.96472369 50.30859375 165.453125 C41.02580214 173.46601641 31.28609152 176.31737529 19.21484375 176.44140625 C18.08007347 176.45351387 18.08007347 176.45351387 16.92237854 176.46586609 C15.33149455 176.47962616 13.74058205 176.490384 12.1496582 176.49829102 C10.52717401 176.5098604 8.90472931 176.53038978 7.2824707 176.55981445 C4.92633469 176.60247994 2.57131794 176.61865108 0.21484375 176.62890625 C-0.86658653 176.65516838 -0.86658653 176.65516838 -1.96986389 176.68196106 C-5.54932449 176.66658335 -7.54870085 176.31206115 -10.58959961 174.36401367 C-13.1791216 171.73589085 -14.61040338 170.03378239 -15.09375 166.328125 C-14.63252729 162.48460242 -13.38434892 160.94712389 -10.71875 158.203125 C-7.68205801 156.684779 -4.51586469 157.0464304 -1.18359375 157.02734375 C0.36394554 157.00412222 1.91147159 156.98000398 3.45898438 156.95507812 C5.89225829 156.92015309 8.32505241 156.89072897 10.75854492 156.87719727 C25.38512419 157.00013747 25.38512419 157.00013747 37.71875 149.890625 C41.47827704 143.42423849 41.5825516 137.11714469 41.58764648 129.82080078 C41.59597 128.80035675 41.60429352 127.77991272 41.61286926 126.72854614 C41.63688693 123.36847068 41.64573076 120.00858959 41.65234375 116.6484375 C41.66131529 114.30345605 41.67043723 111.95847518 41.67970276 109.61349487 C41.6961722 104.70276501 41.70388935 99.79210316 41.70678711 94.88134766 C41.71217319 88.60118169 41.74987233 82.32165818 41.79553127 76.04167366 C41.82532759 71.1996733 41.83251122 66.35782732 41.83351326 61.51574326 C41.83770925 59.20096769 41.85011839 56.8861914 41.87103081 54.5715065 C41.89800142 51.32860737 41.89310225 48.08719373 41.88061523 44.84423828 C41.89544952 43.89641479 41.91028381 42.94859131 41.92556763 41.9720459 C41.85301838 35.32797134 40.21381052 30.59102455 36.28125 25.203125 C31.61678784 20.95764611 27.81709309 20.6448873 21.8125 20.734375 C21.01396606 20.72732544 20.21543213 20.72027588 19.3927002 20.7130127 C16.85522024 20.69106625 14.31879652 20.6939607 11.78125 20.703125 C8.43693239 20.71520294 5.09418102 20.70139786 1.75 20.671875 C0.99046021 20.68319458 0.23092041 20.69451416 -0.55163574 20.70617676 C-5.70957517 20.65747073 -8.62716745 19.6050804 -12.71875 16.203125 C-15.07961122 12.66183316 -15.29144578 11.37562282 -14.71875 7.203125 C-10.72103565 0.78300382 -7.15188993 0.04075646 0 0 Z " fill="#213352" transform="translate(163.71875,23.796875)"/>
<path d="M0 0 C4.49602577 2.40757628 7.83126749 5.47887287 11.4296875 9.0234375 C12.02427765 9.6066275 12.6188678 10.1898175 13.23147583 10.79067993 C14.47968589 12.02007451 15.72507211 13.25234203 16.96777344 14.48730469 C18.87609162 16.37608044 20.80466945 18.24248794 22.734375 20.109375 C23.94662243 21.30857309 25.15760547 22.50905098 26.3671875 23.7109375 C27.23728958 24.54399918 27.23728958 24.54399918 28.12496948 25.39389038 C31.9162943 29.22860203 31.9162943 29.22860203 32.26611328 32.45239258 C30.3320895 36.34393484 27.46894223 39.04044413 24.375 42.05078125 C23.71290527 42.70958786 23.05081055 43.36839447 22.36865234 44.04716492 C20.97109768 45.43431327 19.56879441 46.81669155 18.16210938 48.19458008 C15.99919941 50.31328423 13.85004772 52.44518643 11.703125 54.58007812 C10.34452374 55.92526108 8.98517443 57.26968902 7.625 58.61328125 C6.97708496 59.25380936 6.32916992 59.89433746 5.66162109 60.55427551 C1.11826876 65 1.11826876 65 0 65 C-0.02578125 63.96359375 -0.0515625 62.9271875 -0.078125 61.859375 C-0.13441951 60.48954199 -0.19176655 59.11975195 -0.25 57.75 C-0.26417969 57.06808594 -0.27835938 56.38617188 -0.29296875 55.68359375 C-0.45837389 52.27624783 -0.76002332 50.31257467 -2.859375 47.578125 C-6.32768108 45.02119862 -9.20660899 44.86167903 -13.3894043 44.79467773 C-14.49031906 44.77473251 -15.59123383 44.75478729 -16.72550964 44.73423767 C-18.50687065 44.70916893 -18.50687065 44.70916893 -20.32421875 44.68359375 C-21.54075638 44.66281265 -22.75729401 44.64203156 -24.01069641 44.62062073 C-27.90290596 44.55515283 -31.79518385 44.49625285 -35.6875 44.4375 C-38.32357482 44.39431218 -40.95964269 44.3506978 -43.59570312 44.30664062 C-50.06373301 44.19867036 -56.53181358 44.09957575 -63 44 C-63 36.08 -63 28.16 -63 20 C-61.32977783 19.9906543 -59.65955566 19.98130859 -57.9387207 19.97167969 C-51.74183482 19.93180745 -45.54544683 19.86605502 -39.34887695 19.79248047 C-36.66689575 19.76204491 -33.98510248 19.74136468 -31.30297852 19.72900391 C-27.44764441 19.70759728 -23.59331514 19.66095492 -19.73828125 19.609375 C-18.53915604 19.60814636 -17.34003082 19.60691772 -16.10456848 19.60565186 C-9.62482315 19.5535604 -9.62482315 19.5535604 -3.76635742 17.08691406 C-0.77421973 13.55176645 -0.7515036 10.950481 -0.4375 6.375 C-0.35371094 5.18648438 -0.26992187 3.99796875 -0.18359375 2.7734375 C-0.09271484 1.40058594 -0.09271484 1.40058594 0 0 Z " fill="#FBFCFC" transform="translate(106,80)"/>
</svg>
